<?xml version="1.0" standalone="no"?>
<!DOCTYPE svg PUBLIC "-//W3C//DTD SVG 20010904//EN"
 "http://www.w3.org/TR/2001/REC-SVG-20010904/DTD/svg10.dtd">
<svg version="1.0" xmlns="http://www.w3.org/2000/svg"
 width="1091.000000pt" height="373.000000pt" viewBox="0 0 1091.000000 373.000000"
 preserveAspectRatio="xMidYMid meet">

<g transform="translate(0.000000,373.000000) scale(0.100000,-0.100000)"
fill="#000000" stroke="none">
<path d="M0 3698 c0 -56 55 -193 104 -262 112 -157 292 -260 545 -312 278 -57
1347 -94 2732 -94 420 0 538 -3 541 -12 3 -7 155 -687 339 -1511 l334 -1499 6
244 c3 134 7 492 8 796 l1 552 839 0 838 0 7 -52 c3 -29 6 -390 6 -803 0 -412
4 -743 9 -735 4 8 158 691 342 1517 l334 1503 540 0 c1204 1 2269 31 2615 75
318 41 546 156 668 338 50 75 86 164 98 245 l7 42 -54 0 c-162 1 -4556 -62
-4567 -66 -10 -3 -11 -160 -6 -824 l7 -820 -837 0 -838 0 3 823 3 822 -110 3
c-172 4 -4308 62 -4416 62 l-98 0 0 -32z"/>
<path d="M350 2903 c2 -145 130 -344 286 -443 213 -134 418 -172 1104 -200
595 -24 2130 -41 2130 -22 0 4 -32 138 -72 298 l-72 291 -940 6 c-1347 9
-2050 35 -2306 83 -114 21 -130 20 -130 -13z"/>
<path d="M10415 2915 c-261 -48 -967 -73 -2292 -82 l-941 -6 -75 -299 -75
-298 452 0 c505 0 1304 15 1676 30 653 28 819 53 1038 161 176 86 302 234 346
405 25 96 23 104 -21 103 -21 -1 -69 -7 -108 -14z"/>
<path d="M780 2097 c0 -36 27 -121 55 -178 52 -102 158 -201 281 -263 187 -93
361 -119 974 -146 294 -13 1938 -35 1947 -27 5 6 -79 379 -119 525 l-9 32
-537 0 c-1158 0 -2156 31 -2439 76 -51 8 -106 14 -123 14 -27 0 -30 -3 -30
-33z"/>
<path d="M10005 2120 c-210 -43 -932 -69 -2168 -78 l-842 -7 -66 -270 c-39
-156 -63 -274 -58 -279 10 -11 1591 9 1944 24 469 20 633 36 785 76 295 77
495 266 527 499 l6 45 -44 -1 c-24 -1 -62 -5 -84 -9z"/>
</g>
</svg>
